<svg width="18" height="20" viewBox="0 0 18 20" fill="none" xmlns="http://www.w3.org/2000/svg">
<path d="M7.575 14.775L14.5 7.85L13.425 6.775L7.575 12.625L4.55 9.6L3.5 10.65L7.575 14.775ZM1.5 20C1.0875 20 0.734375 19.8531 0.440625 19.5594C0.146875 19.2656 0 18.9125 0 18.5V3.5C0 3.0875 0.146875 2.73438 0.440625 2.44062C0.734375 2.14688 1.0875 2 1.5 2H6.625C6.70833 1.41667 6.975 0.9375 7.425 0.5625C7.875 0.1875 8.4 0 9 0C9.6 0 10.125 0.1875 10.575 0.5625C11.025 0.9375 11.2917 1.41667 11.375 2H16.5C16.9125 2 17.2656 2.14688 17.5594 2.44062C17.8531 2.73438 18 3.0875 18 3.5V18.5C18 18.9125 17.8531 19.2656 17.5594 19.5594C17.2656 19.8531 16.9125 20 16.5 20H1.5ZM1.5 18.5H16.5V3.5H1.5V18.5ZM9 3.075C9.23333 3.075 9.4375 2.9875 9.6125 2.8125C9.7875 2.6375 9.875 2.43333 9.875 2.2C9.875 1.96667 9.7875 1.7625 9.6125 1.5875C9.4375 1.4125 9.23333 1.325 9 1.325C8.76667 1.325 8.5625 1.4125 8.3875 1.5875C8.2125 1.7625 8.125 1.96667 8.125 2.2C8.125 2.43333 8.2125 2.6375 8.3875 2.8125C8.5625 2.9875 8.76667 3.075 9 3.075Z" fill="#413C3A"/>
</svg>
