<svg width="50" height="50" viewBox="0 0 50 50" fill="none" xmlns="http://www.w3.org/2000/svg">
<circle cx="25" cy="25" r="25" fill="#D9D9D9"/>
<path d="M25 24.6618C23.625 24.6618 22.5 24.2109 21.625 23.3092C20.75 22.4074 20.3125 21.248 20.3125 19.8309C20.3125 18.4138 20.75 17.2544 21.625 16.3527C22.5 15.4509 23.625 15 25 15C26.375 15 27.5 15.4509 28.375 16.3527C29.25 17.2544 29.6875 18.4138 29.6875 19.8309C29.6875 21.248 29.25 22.4074 28.375 23.3092C27.5 24.2109 26.375 24.6618 25 24.6618ZM15 35V31.9726C15 31.1567 15.1979 30.4589 15.5938 29.8792C15.9896 29.2995 16.5 28.8594 17.125 28.5588C18.5208 27.9147 19.8594 27.4316 21.1406 27.1095C22.4219 26.7874 23.7083 26.6264 25 26.6264C26.2917 26.6264 27.5729 26.7928 28.8438 27.1256C30.1146 27.4584 31.4471 27.9382 32.8413 28.565C33.4934 28.8683 34.0162 29.3081 34.4097 29.8844C34.8032 30.4607 35 31.1567 35 31.9726V35H15ZM16.875 33.0676H33.125V31.9726C33.125 31.6291 33.026 31.3017 32.8281 30.9903C32.6302 30.679 32.3854 30.4482 32.0938 30.2979C30.7604 29.6323 29.5417 29.1761 28.4375 28.9291C27.3333 28.6822 26.1875 28.5588 25 28.5588C23.8125 28.5588 22.6562 28.6822 21.5312 28.9291C20.4062 29.1761 19.1875 29.6323 17.875 30.2979C17.5833 30.4482 17.3438 30.679 17.1562 30.9903C16.9688 31.3017 16.875 31.6291 16.875 31.9726V33.0676ZM25 22.7295C25.8125 22.7295 26.4844 22.4557 27.0156 21.9082C27.5469 21.3607 27.8125 20.6683 27.8125 19.8309C27.8125 18.9936 27.5469 18.3011 27.0156 17.7536C26.4844 17.2061 25.8125 16.9324 25 16.9324C24.1875 16.9324 23.5156 17.2061 22.9844 17.7536C22.4531 18.3011 22.1875 18.9936 22.1875 19.8309C22.1875 20.6683 22.4531 21.3607 22.9844 21.9082C23.5156 22.4557 24.1875 22.7295 25 22.7295Z" fill="#413C3A"/>
</svg>
